<svg width="333" height="223" viewBox="0 0 333 223" fill="none" xmlns="http://www.w3.org/2000/svg">
<g clip-path="url(#clip0_5_1054)">
<path opacity="0.26" d="M32.7239 215.027C26.2032 212.958 20.2804 209.337 15.4633 204.472C10.6462 199.608 7.07851 193.646 5.06612 187.097C3.05373 180.548 2.65666 173.608 3.90895 166.872C5.16124 160.136 8.02554 153.805 12.2563 148.421C20.2557 138.234 32.8147 131.827 38.8874 120.378C43.5277 111.646 45.0005 98.8427 40.0777 90.0003C34.459 79.8947 30.6862 70.1327 29.7279 58.3698C28.8402 47.5164 30.9081 36.1375 37.3541 27.3456C44.032 18.2506 54.8156 12.8845 65.8615 10.6815C79.984 7.86206 98.1417 7.87216 112.052 11.3586C134.538 16.9975 153.885 31.0746 175.2 40.2C196.919 49.5274 221.533 53.5696 244.381 47.5063C256.153 44.4241 267.27 38.7549 279.324 37.0874C291.379 35.42 305.481 39.058 311.08 49.8912C312.973 53.9361 313.984 58.3389 314.045 62.8061C314.943 80.7537 308.497 98.1757 303.605 115.416C298.712 132.656 295.394 151.654 302.223 168.268C305.441 176.09 310.737 182.891 314.146 190.632C317.556 198.373 318.797 207.933 313.995 214.885L32.7239 215.027Z" fill="url(#paint0_linear_5_1054)"/>
<path opacity="0.26" d="M188.274 1.12175C172.588 0.909534 153.26 2.77906 162.167 18.4023C165.819 24.7991 178.116 29.5185 184.168 33.0655C194.357 39.0076 204.828 42.4637 216.781 40.958C226.818 39.6847 233.839 37.5423 233.385 25.8703C233.063 17.4726 229.703 11.6113 223.036 6.98298C217.588 3.20349 210.386 1.52597 203.799 1.62703C200.863 1.66745 194.891 1.2127 188.274 1.12175Z" fill="url(#paint1_linear_5_1054)"/>
<path d="M254.993 194.725C256.314 188.833 262.881 185.892 266.362 180.971C268.379 178.03 269.388 174.453 271.093 171.31C272.797 168.167 275.884 165.247 279.465 165.519C283.046 165.792 285.831 168.925 289.311 168.743C293.094 168.531 296.473 164.398 299.983 165.802C301.082 166.422 302.116 167.15 303.07 167.975C305.168 169.329 307.842 169.299 310.323 169.097C312.805 168.895 315.367 168.581 317.727 169.501C320.088 170.421 321.914 173.058 321.016 175.382C319.614 179.01 313.45 178.566 311.937 182.143C311.312 183.639 311.745 185.397 311.201 186.923C310.464 188.944 308.174 190.036 306.046 190.359C303.918 190.682 301.678 190.511 299.59 191.087C298.745 191.271 297.979 191.716 297.401 192.36C295.948 194.199 297.33 197.231 295.908 199.1C294.829 200.515 292.73 200.495 290.955 200.343L279.919 199.393C279.143 200.303 280.03 201.627 280.202 202.809C280.585 205.507 277.175 207.074 274.462 207.235C271.325 207.417 268.208 206.73 265.161 207.286C261.554 208.14 258.111 209.585 254.973 211.56C257.202 206.063 255.185 206.184 255.407 203.223C255.628 200.262 254.337 197.665 254.993 194.725Z" fill="url(#paint2_linear_5_1054)"/>
<path d="M253.258 212.227C267.381 193.633 286.93 177.191 310.424 172.937C293.043 176.433 278.053 187.196 266.039 199.848C261.997 204.061 258.287 208.582 254.943 213.369L253.258 212.227Z" fill="#6C61B7"/>
<path d="M241.536 188.762C240.941 184.225 242.868 179.738 245.248 175.837C247.629 171.936 250.514 168.298 252.189 164.044C254.055 159.304 254.287 154.11 255.296 149.118C256.304 144.126 258.322 138.952 262.619 136.203C266.14 133.939 270.75 133.606 273.887 130.847C277.569 127.613 278.416 121.752 282.592 119.185C286.426 116.841 291.318 118.266 295.807 118.346C299.276 118.403 302.705 117.604 305.794 116.022C308.517 114.607 311.12 112.556 314.187 112.495C315.419 112.472 316.635 112.785 317.704 113.4C318.773 114.014 319.655 114.908 320.257 115.986C320.859 117.064 321.157 118.285 321.12 119.52C321.083 120.754 320.713 121.955 320.048 122.995C317.495 126.977 311.08 128.098 310.192 132.747C310.072 134.26 310.153 135.783 310.434 137.274C310.58 139.148 310.301 141.03 309.618 142.78C308.935 144.53 307.865 146.102 306.49 147.38C303.918 149.734 300.488 150.886 297.502 152.685C294.516 154.484 291.762 157.506 292.055 160.982C292.236 163.104 293.527 164.943 294.284 166.934C295.332 170.023 295.165 173.396 293.818 176.366C292.47 179.337 290.043 181.681 287.031 182.921C282.996 184.417 278.023 183.81 274.643 186.539C270.608 189.783 270.669 196.281 266.816 199.676C261.52 204.416 253.228 201.697 247.71 206.326C246.197 200.596 242.313 194.725 241.536 188.762Z" fill="url(#paint3_linear_5_1054)"/>
<path d="M245.188 210.924C253.803 176.332 273.796 143.792 303.242 123.308C289.109 134.042 277.216 147.449 268.238 162.771C259.207 177.891 252.757 194.415 249.152 211.661L245.188 210.924Z" fill="#BBB8E6"/>
<path d="M69.4527 191.683C66.6383 186.337 59.5366 185.215 54.8964 181.375C52.1324 179.081 50.3065 175.867 47.8351 173.291C45.3636 170.714 41.6212 168.713 38.2418 169.895C34.8625 171.077 32.9862 174.857 29.5766 175.585C25.8644 176.373 21.5066 173.26 18.4803 175.585C17.5836 176.47 16.776 177.441 16.0694 178.485C14.405 180.344 11.8125 181.011 9.3612 181.466C6.90992 181.921 4.31742 182.305 2.29991 183.79C0.282405 185.276 -0.817133 188.318 0.665736 190.339C2.9657 193.461 8.78621 191.42 11.1669 194.492C12.1756 195.765 12.1756 197.574 13.1239 198.908C14.3646 200.687 16.8461 201.121 18.9948 200.929C21.1434 200.737 23.2518 199.919 25.4206 199.919C26.2825 199.88 27.1353 200.109 27.8618 200.576C29.7481 201.97 29.2034 205.265 31.0595 206.69C32.4718 207.771 34.4993 207.205 36.1739 206.599L46.5741 202.789C47.5829 203.466 47.0483 204.972 47.1895 206.164C47.5224 208.872 51.2245 209.489 53.8876 208.933C56.9139 208.286 59.7889 206.801 62.8756 206.548C66.5789 206.43 70.2764 206.921 73.8206 208.003C70.2395 203.284 72.2268 202.88 71.2281 200.07C70.2294 197.261 70.8549 194.351 69.4527 191.683Z" fill="url(#paint4_linear_5_1054)"/>
<path d="M74.3452 209.671C56.4701 195.098 33.8134 183.8 10.2288 185.175C27.9929 183.487 45.5957 189.52 60.8884 198.211C66.0638 201.144 71.0017 204.479 75.6566 208.185L74.3452 209.711V209.671Z" fill="#BBB8E6"/>
<path d="M80.8213 189.52C81.4064 184.993 79.4797 180.506 77.099 176.605C74.7184 172.704 71.8333 169.056 70.1588 164.802C68.2926 160.072 68.0606 154.868 67.0619 149.876C66.0632 144.884 64.0357 139.71 59.7283 136.961C56.2178 134.697 51.6582 134.364 48.4605 131.605C44.7886 128.371 43.9312 122.51 39.7549 119.943C35.9217 117.599 31.0393 119.034 26.5503 119.114C23.0772 119.172 19.6435 118.37 16.5536 116.78C13.8299 115.375 11.2374 113.314 8.17083 113.253C6.93591 113.227 5.71712 113.538 4.64502 114.152C3.57292 114.767 2.68789 115.662 2.08468 116.742C1.48148 117.822 1.18283 119.045 1.22074 120.282C1.25864 121.519 1.63167 122.722 2.29987 123.763C4.85202 127.745 11.2677 128.816 12.1554 133.505C12.2756 135.018 12.1942 136.54 11.9133 138.032C11.774 139.906 12.0571 141.787 12.7416 143.536C13.426 145.285 14.4944 146.858 15.8676 148.138C18.44 150.492 21.8596 151.634 24.8455 153.433C27.8315 155.232 30.5954 158.253 30.2928 161.73C30.1112 163.852 28.8301 165.691 28.0635 167.682C27.0157 170.774 27.1837 174.149 28.533 177.121C29.8824 180.093 32.3118 182.438 35.3265 183.679C39.3615 185.185 44.3246 184.568 47.7039 187.297C51.7389 190.541 51.6885 197.039 55.5318 200.485C60.8278 205.214 69.1299 202.506 74.6377 207.124C76.1306 201.364 80.0446 195.482 80.8213 189.52Z" fill="url(#paint5_linear_5_1054)"/>
<path d="M73.2254 212.419C67.8478 186.409 55.9275 162.206 38.5949 142.105C32.7408 135.442 26.2204 129.397 19.136 124.066C26.4326 129.148 33.1927 134.961 39.3111 141.418C54.6946 157.667 66.0632 177.525 73.3868 198.646C74.8786 202.919 76.138 207.271 77.1595 211.682L73.1951 212.419H73.2254Z" fill="#B0A7F0"/>
<path d="M91.0803 198.342C88.2962 197.463 85.3103 198.787 82.395 198.676C81.4947 198.701 80.6137 198.412 79.9034 197.857C79.5552 197.576 79.3169 197.181 79.2303 196.741C79.1436 196.301 79.214 195.845 79.4292 195.452C79.9941 194.613 81.1845 194.583 82.1932 194.623C85.1467 194.851 88.1162 194.76 91.0501 194.351C91.8161 194.223 92.5739 194.051 93.3198 193.835L93.5115 193.765C94.5596 189.569 94.3633 185.158 92.9466 181.072C92.7418 181.2 92.5106 181.279 92.2707 181.304C88.4427 182.01 84.8827 183.758 81.9814 186.357C81.4144 186.942 80.7612 187.436 80.0446 187.822C79.5639 188.036 79.0401 188.135 78.5148 188.11C77.9894 188.086 77.477 187.939 77.0183 187.681C76.8065 187.574 76.6259 187.414 76.4938 187.216C76.3399 186.902 76.3075 186.542 76.403 186.206C76.746 184.568 78.1986 183.427 79.631 182.557C82.1731 180.991 85.048 179.708 86.783 177.262C87.3592 176.4 87.7856 175.447 88.044 174.443C88.3769 173.371 88.8813 172.31 88.4173 171.189C88.0029 170.408 87.363 169.77 86.5813 169.36C83.8544 167.649 80.9226 166.291 77.8556 165.317L77.4117 165.186C76.3324 167.096 74.91 168.814 74.0829 170.845C72.9631 173.614 72.9833 176.908 70.986 179.172C70.8106 179.405 70.5912 179.6 70.3402 179.748C70.0892 179.895 69.8115 179.991 69.5233 180.031C69.1382 180.018 68.7676 179.881 68.4661 179.641C68.1645 179.401 67.9481 179.07 67.8488 178.697C67.6722 177.941 67.7248 177.149 68 176.423C68.5649 174.695 69.6141 173.159 70.1689 171.421C70.4914 170.344 70.588 169.211 70.4526 168.095C70.3172 166.978 69.9527 165.902 69.382 164.933C68.8398 164.021 68.1234 163.224 67.2738 162.589C66.4723 162.071 65.6033 161.666 64.6914 161.386C63.3339 160.811 61.9343 160.341 60.505 159.982C58.252 159.494 55.9334 159.388 53.6455 159.668C54.2414 160.338 54.7686 161.066 55.2191 161.841C56.4319 163.868 57.2852 166.091 57.741 168.41C57.9628 169.237 57.9628 170.109 57.741 170.936C57.6265 171.347 57.3853 171.71 57.052 171.975C56.7186 172.24 56.3101 172.393 55.8849 172.411C55.3353 172.342 54.8225 172.098 54.4222 171.714C53.2969 170.78 52.4346 169.568 51.9205 168.197C51.4363 166.894 51.2749 165.489 50.8512 164.155C50.4982 163.033 49.7416 161.336 48.4605 161.123C46.9545 160.965 45.4322 161.141 44.0018 161.639C38.6053 162.956 32.9675 162.918 27.5894 161.528C29.4959 162.013 30.7468 163.862 31.4731 165.701C32.1296 167.37 32.5111 169.135 32.6029 170.926C32.6535 171.836 32.6231 172.749 32.5121 173.654C32.4011 174.473 32.0379 175.221 31.9169 176.029C31.8704 176.367 31.891 176.71 31.9774 177.04C32.2095 177.939 33.1173 178.05 33.9142 178.242C34.9366 178.426 35.9725 178.524 37.0111 178.535C38.5571 178.5 40.0991 178.708 41.5808 179.152C42.1704 179.345 42.6968 179.694 43.104 180.162C43.3126 180.396 43.4538 180.682 43.5124 180.99C43.571 181.298 43.5449 181.616 43.4369 181.911C43.2352 182.23 42.9628 182.498 42.6409 182.694C42.3189 182.89 41.9562 183.009 41.5808 183.042C40.1051 183.331 38.5849 183.3 37.1221 182.952C35.7098 182.618 34.3884 182.002 33.0165 181.547C32.2746 181.291 31.5066 181.118 30.7266 181.031C30.4641 182.025 30.2886 183.039 30.202 184.063C30.0575 184.965 30.1022 185.888 30.3332 186.771C30.4928 187.198 30.7394 187.586 31.0573 187.911C31.3751 188.237 31.7572 188.492 32.1792 188.661C33.3662 188.954 34.5904 189.066 35.8107 188.995C38.3939 189.079 40.9766 188.811 43.4873 188.196C45.3737 187.661 47.2802 186.782 49.2271 187.105C49.6157 187.14 49.989 187.273 50.3119 187.492C50.6348 187.712 50.8968 188.009 51.0732 188.358C51.1689 188.684 51.1744 189.031 51.0891 189.36C51.0038 189.689 50.831 189.989 50.589 190.228C50.1019 190.696 49.5107 191.043 48.864 191.238C44.022 192.956 38.6554 191.299 33.541 191.834L32.7239 191.925C34.0151 194.593 34.5699 197.564 35.5787 200.353C35.9693 201.471 36.4765 202.545 37.0918 203.557C38.7462 202.86 40.3501 202.081 41.9742 201.243C44.8189 199.787 47.9763 198.474 51.1337 198.979C51.5847 199.005 52.0126 199.187 52.3442 199.494C52.5698 199.801 52.6785 200.178 52.6508 200.558C52.623 200.938 52.4606 201.296 52.1929 201.566C51.6431 202.092 50.9701 202.471 50.2359 202.668L47.7544 203.577C46.6088 203.875 45.5638 204.475 44.7281 205.315C44.3251 205.903 43.9676 206.522 43.6588 207.165C43.488 207.448 43.2957 207.719 43.0838 207.973C43.8807 208.155 44.6978 208.296 45.4948 208.498C48.178 209.196 50.6192 210.6 53.1916 211.621C54.3788 212.082 55.5954 212.464 56.8331 212.763C57.1594 212.463 57.466 212.142 57.7511 211.803C58.9722 210.256 59.9893 208.558 60.7774 206.75C61.4639 205.084 62.3918 203.527 63.5313 202.132C63.6486 201.97 63.7996 201.836 63.9738 201.738C64.1479 201.641 64.3411 201.582 64.54 201.566C65.1453 201.566 65.4479 202.324 65.5488 202.94C65.8312 205.76 63.965 208.276 62.9563 210.924C62.6992 211.812 62.3615 212.674 61.9475 213.501C62.8857 213.551 63.8339 213.561 64.7821 213.501C66.9005 213.4 69.5737 213.056 71.2584 211.621C73.4171 209.782 74.2241 206.063 75.6262 203.789C77.4883 204.365 79.4461 204.564 81.3857 204.375C83.3254 204.186 85.208 203.613 86.9243 202.688C88.7074 201.6 90.2242 200.126 91.3628 198.373L91.0803 198.342ZM41.2882 174.766C41.2336 175.022 41.1111 175.259 40.9336 175.451C40.756 175.643 40.5301 175.783 40.2795 175.857C39.7796 175.992 39.2563 176.017 38.7462 175.928C38.1619 175.89 37.6013 175.683 37.1322 175.332C36.902 175.154 36.7408 174.901 36.6763 174.617C36.6119 174.333 36.6482 174.036 36.7791 173.776C36.905 173.584 37.0743 173.425 37.2734 173.311C38.5142 172.512 41.6009 172.543 41.2882 174.766ZM46.0899 167.935C45.8343 168.109 45.5404 168.22 45.2331 168.257C44.9259 168.294 44.6142 168.256 44.3246 168.147C44.094 168.119 43.8802 168.012 43.7193 167.844C43.6352 167.703 43.5868 167.543 43.5781 167.379C43.5106 166.916 43.5845 166.444 43.79 166.025C44.6171 164.529 46.3623 164.852 46.4934 166.54C46.5362 166.788 46.5221 167.042 46.4522 167.284C46.3823 167.526 46.2584 167.748 46.0899 167.935ZM52.0214 181.557C51.8623 181.749 51.6577 181.899 51.4262 181.991C50.7828 182.251 50.0938 182.377 49.4005 182.363C48.7072 182.349 48.0238 182.195 47.3912 181.911C47.2326 181.864 47.0862 181.782 46.9624 181.672C46.8387 181.562 46.7405 181.426 46.675 181.274C46.564 180.88 46.8868 180.496 47.1794 180.203C48.2264 179.202 49.6263 178.657 51.0732 178.687C52.3341 178.798 52.7275 180.567 52.0214 181.557ZM55.9454 185.953C58.5178 184.942 59.3147 188.782 57.1761 189.298C54.392 189.934 53.3529 186.963 55.9454 185.953ZM59.7585 198.08C59.4604 198.29 59.1127 198.419 58.7498 198.453C58.616 198.474 58.48 198.474 58.3463 198.453C58.0965 198.405 57.8669 198.284 57.687 198.103C57.5072 197.923 57.3854 197.693 57.3375 197.443C56.9845 194.876 63.2085 195.745 59.7585 198.08ZM63.4707 178.647C63.437 178.939 63.3289 179.217 63.157 179.455C62.9851 179.694 62.7551 179.884 62.4889 180.007C62.2227 180.131 61.9292 180.184 61.6366 180.162C61.344 180.139 61.0621 180.042 60.8177 179.879C60.5279 179.671 60.2987 179.388 60.1534 179.062C60.0081 178.735 59.9518 178.376 59.9905 178.02C60.0813 177.141 61.0699 175.484 62.1392 175.635C63.2085 175.787 63.612 177.868 63.4707 178.677V178.647ZM74.7991 190.409C74.571 190.532 74.3163 190.595 74.0576 190.595C73.799 190.595 73.5443 190.532 73.3162 190.409C73.2276 190.369 73.1511 190.307 73.0943 190.228C73.0685 190.142 73.0685 190.05 73.0943 189.965C73.1062 189.695 73.1842 189.432 73.3214 189.199C73.4586 188.967 73.6508 188.772 73.8811 188.631C74.5469 188.227 75.0714 188.318 75.3539 188.631C75.464 188.779 75.5377 188.95 75.5691 189.132C75.6006 189.314 75.5887 189.5 75.5347 189.676C75.4806 189.853 75.3859 190.014 75.258 190.146C75.1302 190.279 74.973 190.379 74.7991 190.44V190.409Z" fill="url(#paint6_linear_5_1054)"/>
<path d="M78.7433 211.651C69.9974 191.521 54.5332 173.099 33.652 165.065C49.5298 170.714 62.4822 182.628 71.8434 196.453C75.0141 201.087 77.7687 205.994 80.0749 211.116L78.7433 211.651Z" fill="#4C4887"/>
<path d="M264.294 67.4851H78.128C71.3702 67.4851 65.8918 72.9732 65.8918 79.7432V192.693C65.8918 199.463 71.3702 204.951 78.128 204.951H264.294C271.052 204.951 276.53 199.463 276.53 192.693V79.7432C276.53 72.9732 271.052 67.4851 264.294 67.4851Z" fill="url(#paint7_linear_5_1054)"/>
<path d="M269.973 192.693V79.7432C269.973 76.601 267.43 74.0537 264.294 74.0537L78.1281 74.0537C74.9915 74.0537 72.4488 76.601 72.4488 79.7432V192.693C72.4488 195.836 74.9915 198.383 78.1281 198.383H264.294C267.43 198.383 269.973 195.836 269.973 192.693Z" fill="#BBB4F8"/>
<path d="M269.973 79.7533V192.703C269.97 194.212 269.371 195.657 268.307 196.724C267.242 197.79 265.799 198.39 264.294 198.393H78.128C76.6226 198.39 75.1796 197.79 74.1151 196.724C73.0506 195.657 72.4514 194.212 72.4487 192.703V79.7533C72.4514 78.2452 73.0506 76.7996 74.1151 75.7332C75.1796 74.6668 76.6226 74.0665 78.128 74.0638H264.294C265.799 74.0665 267.242 74.6668 268.307 75.7332C269.371 76.7996 269.97 78.2452 269.973 79.7533Z" fill="url(#paint8_linear_5_1054)"/>
<g style="mix-blend-mode:overlay" opacity="0.14">
<path d="M236.896 74.0641L112.819 198.363H78.128C76.6226 198.36 75.1796 197.76 74.1151 196.693C73.0506 195.627 72.4514 194.181 72.4487 192.673V190.602L188.809 74.0641H236.896Z" fill="white"/>
<path d="M262.478 74.0537L138.371 198.383H120.778L244.885 74.0537H262.478Z" fill="white"/>
</g>
<path d="M214.905 32.4692H127.517C118.101 32.4692 110.469 40.1155 110.469 49.5477V187.873C110.469 197.305 118.101 204.951 127.517 204.951H214.905C224.32 204.951 231.953 197.305 231.953 187.873V49.5477C231.953 40.1155 224.32 32.4692 214.905 32.4692Z" fill="url(#paint9_linear_5_1054)"/>
<path d="M164.225 60.8154H214.693" stroke="#BBB4F8" stroke-width="3.9" stroke-linecap="round" stroke-linejoin="round"/>
<path d="M164.225 71.7598H174.797" stroke="#BBB4F8" stroke-width="3.9" stroke-linecap="round" stroke-linejoin="round"/>
<path d="M143.43 75.3389C148.422 70.3387 148.422 62.2318 143.43 57.2316C138.439 52.2314 130.347 52.2315 125.355 57.2317C120.364 62.2318 120.364 70.3387 125.355 75.3389C130.347 80.3391 138.439 80.3391 143.43 75.3389Z" fill="url(#paint10_linear_5_1054)"/>
<path d="M136.938 62.8567C136.938 63.3604 136.789 63.8527 136.51 64.2715C136.231 64.6903 135.834 65.0167 135.369 65.2094C134.905 65.4022 134.393 65.4526 133.9 65.3544C133.407 65.2561 132.954 65.0136 132.599 64.6574C132.243 64.3013 132.001 63.8475 131.903 63.3535C131.805 62.8595 131.855 62.3475 132.048 61.8821C132.24 61.4168 132.566 61.0191 132.984 60.7393C133.402 60.4594 133.894 60.3101 134.396 60.3101C134.73 60.3087 135.062 60.3737 135.371 60.5012C135.68 60.6287 135.96 60.8162 136.197 61.053C136.433 61.2897 136.62 61.571 136.748 61.8806C136.875 62.1901 136.94 62.5219 136.938 62.8567Z" fill="url(#paint11_linear_5_1054)"/>
<path d="M134.396 66.4543C132.86 66.457 131.387 67.0704 130.301 68.1598C129.216 69.2493 128.606 70.7257 128.606 72.2651H140.197C140.197 70.724 139.586 69.246 138.498 68.1563C137.41 67.0666 135.935 66.4543 134.396 66.4543Z" fill="url(#paint12_linear_5_1054)"/>
<path d="M164.225 97.337H214.693" stroke="#BBB4F8" stroke-width="3.9" stroke-linecap="round" stroke-linejoin="round"/>
<path d="M164.225 108.281H182.907" stroke="#BBB4F8" stroke-width="3.9" stroke-linecap="round" stroke-linejoin="round"/>
<path d="M146.857 105.795C148.488 98.9153 144.243 92.0134 137.375 90.3794C130.507 88.7455 123.618 92.9982 121.987 99.8782C120.356 106.758 124.601 113.66 131.469 115.294C138.336 116.928 145.226 112.675 146.857 105.795Z" fill="url(#paint13_linear_5_1054)"/>
<path d="M134.396 101.925C135.8 101.925 136.938 100.785 136.938 99.3783C136.938 97.9718 135.8 96.8317 134.396 96.8317C132.992 96.8317 131.854 97.9718 131.854 99.3783C131.854 100.785 132.992 101.925 134.396 101.925Z" fill="url(#paint14_linear_5_1054)"/>
<path d="M134.396 102.986C133.635 102.986 132.881 103.136 132.178 103.428C131.475 103.721 130.836 104.149 130.298 104.689C129.761 105.228 129.334 105.869 129.044 106.574C128.754 107.279 128.605 108.034 128.606 108.797H140.197C140.198 108.033 140.049 107.277 139.758 106.571C139.467 105.866 139.04 105.225 138.501 104.685C137.962 104.145 137.322 103.717 136.618 103.426C135.913 103.134 135.158 102.985 134.396 102.986Z" fill="url(#paint15_linear_5_1054)"/>
<path d="M164.225 133.869H214.693" stroke="#BBB4F8" stroke-width="3.9" stroke-linecap="round" stroke-linejoin="round"/>
<path d="M164.225 144.813H191.623" stroke="#BBB4F8" stroke-width="3.9" stroke-linecap="round" stroke-linejoin="round"/>
<path d="M143.427 148.399C148.418 143.399 148.418 135.292 143.427 130.292C138.436 125.292 130.343 125.292 125.352 130.292C120.361 135.292 120.361 143.399 125.352 148.399C130.343 153.399 138.436 153.399 143.427 148.399Z" fill="url(#paint16_linear_5_1054)"/>
<path d="M134.396 138.446C135.8 138.446 136.938 137.306 136.938 135.9C136.938 134.493 135.8 133.353 134.396 133.353C132.992 133.353 131.854 134.493 131.854 135.9C131.854 137.306 132.992 138.446 134.396 138.446Z" fill="url(#paint17_linear_5_1054)"/>
<path d="M134.396 139.467C132.86 139.47 131.387 140.083 130.301 141.173C129.216 142.262 128.606 143.739 128.606 145.278H140.197C140.197 143.737 139.586 142.259 138.498 141.169C137.41 140.079 135.935 139.467 134.396 139.467Z" fill="url(#paint18_linear_5_1054)"/>
<path d="M164.225 170.39H214.693" stroke="#BBB4F8" stroke-width="3.9" stroke-linecap="round" stroke-linejoin="round"/>
<path d="M164.225 181.335H174.797" stroke="#BBB4F8" stroke-width="3.9" stroke-linecap="round" stroke-linejoin="round"/>
<path d="M134.396 188.671C141.455 188.671 147.177 182.939 147.177 175.867C147.177 168.796 141.455 163.064 134.396 163.064C127.338 163.064 121.615 168.796 121.615 175.867C121.615 182.939 127.338 188.671 134.396 188.671Z" fill="url(#paint19_linear_5_1054)"/>
<path d="M134.396 174.978C135.8 174.978 136.938 173.838 136.938 172.432C136.938 171.025 135.8 169.885 134.396 169.885C132.992 169.885 131.854 171.025 131.854 172.432C131.854 173.838 132.992 174.978 134.396 174.978Z" fill="url(#paint20_linear_5_1054)"/>
<path d="M134.396 176.039C133.635 176.039 132.881 176.19 132.178 176.482C131.475 176.774 130.836 177.202 130.298 177.742C129.761 178.282 129.334 178.922 129.044 179.627C128.754 180.332 128.605 181.087 128.606 181.85H140.197C140.198 181.087 140.049 180.33 139.758 179.625C139.467 178.919 139.04 178.278 138.501 177.738C137.962 177.198 137.322 176.77 136.618 176.479C135.913 176.187 135.158 176.038 134.396 176.039Z" fill="url(#paint21_linear_5_1054)"/>
<path d="M278.063 214.804H64.3686C61.7628 214.804 59.2637 213.767 57.4211 211.921C55.5785 210.075 54.5433 207.572 54.5433 204.961H287.899C287.899 206.255 287.644 207.536 287.15 208.73C286.655 209.925 285.931 211.011 285.017 211.925C284.104 212.839 283.02 213.564 281.826 214.058C280.633 214.552 279.354 214.806 278.063 214.804Z" fill="url(#paint22_linear_5_1054)"/>
<path d="M183.654 208.63H158.839C157.868 208.627 156.938 208.24 156.252 207.552C155.566 206.865 155.179 205.934 155.177 204.961H187.285C187.285 205.929 186.904 206.858 186.224 207.545C185.543 208.232 184.62 208.622 183.654 208.63Z" fill="url(#paint23_linear_5_1054)"/>
<path d="M81.9498 152.39C90.8582 147.131 93.8243 135.633 88.5748 126.708C83.3252 117.784 71.8478 114.813 62.9394 120.072C54.0309 125.331 51.0648 136.828 56.3144 145.753C61.564 154.677 73.0413 157.649 81.9498 152.39Z" fill="url(#paint24_linear_5_1054)"/>
<path d="M81.7697 129.038C81.1972 128.388 80.4981 127.861 79.7153 127.491C78.9324 127.12 78.0823 126.914 77.217 126.885C76.3518 126.856 75.4897 127.004 74.6836 127.32C73.8776 127.637 73.1445 128.115 72.5295 128.725C71.9145 128.115 71.1814 127.637 70.3753 127.32C69.5692 127.004 68.7071 126.856 67.8419 126.885C66.9767 126.914 66.1265 127.12 65.3437 127.491C64.5608 127.861 63.8617 128.388 63.2893 129.038C62.2253 130.303 61.6796 131.925 61.7619 133.577C61.8443 135.229 62.5487 136.789 63.7331 137.941L70.5019 144.712C70.7709 144.983 71.0908 145.198 71.4431 145.345C71.7954 145.492 72.1731 145.567 72.5547 145.567C72.9362 145.567 73.314 145.492 73.6663 145.345C74.0186 145.198 74.3385 144.983 74.6075 144.712L81.3762 137.941C82.5535 136.782 83.2486 135.219 83.3216 133.567C83.3946 131.915 82.84 130.297 81.7697 129.038Z" fill="#FAFAFA"/>
<path d="M91.1712 110.313C95.3051 110.313 98.6562 106.955 98.6562 102.814C98.6562 98.673 95.3051 95.3159 91.1712 95.3159C87.0374 95.3159 83.6863 98.673 83.6863 102.814C83.6863 106.955 87.0374 110.313 91.1712 110.313Z" fill="url(#paint25_linear_5_1054)"/>
<path d="M94.8834 99.9442C94.654 99.6839 94.374 99.4731 94.0606 99.3247C93.7472 99.1763 93.4069 99.0935 93.0605 99.0812C92.7141 99.0689 92.3688 99.1274 92.0457 99.2532C91.7226 99.379 91.4285 99.5694 91.1813 99.8128C90.9356 99.5683 90.6426 99.3769 90.3202 99.2504C89.9978 99.1239 89.6529 99.065 89.3069 99.0773C88.9608 99.0896 88.621 99.1729 88.3083 99.322C87.9957 99.4711 87.7169 99.6829 87.4892 99.9442C87.0622 100.448 86.8424 101.096 86.8742 101.757C86.9061 102.417 87.1872 103.041 87.6607 103.501L90.3743 106.21C90.4821 106.318 90.6102 106.404 90.7513 106.463C90.8924 106.522 91.0436 106.552 91.1964 106.552C91.3491 106.552 91.5004 106.522 91.6415 106.463C91.7826 106.404 91.9107 106.318 92.0185 106.21L94.722 103.501C95.1919 103.038 95.4696 102.414 95.4996 101.754C95.5295 101.095 95.3094 100.448 94.8834 99.9442Z" fill="#FAFAFA"/>
<path d="M260.628 133.078C263.551 130.15 263.551 125.402 260.628 122.474C257.705 119.546 252.965 119.546 250.042 122.474C247.119 125.402 247.119 130.15 250.042 133.078C252.965 136.006 257.705 136.006 260.628 133.078Z" fill="url(#paint26_linear_5_1054)"/>
<path d="M259.048 124.905C258.82 124.644 258.541 124.434 258.228 124.285C257.914 124.137 257.574 124.055 257.228 124.043C256.882 124.032 256.538 124.092 256.216 124.219C255.894 124.347 255.601 124.539 255.356 124.784C255.111 124.539 254.819 124.347 254.497 124.219C254.175 124.092 253.83 124.032 253.484 124.043C253.138 124.055 252.798 124.137 252.485 124.285C252.172 124.434 251.893 124.644 251.664 124.905C251.237 125.409 251.017 126.057 251.049 126.718C251.081 127.378 251.362 128.002 251.836 128.462L254.539 131.171C254.759 131.39 255.056 131.514 255.366 131.514C255.677 131.514 255.974 131.39 256.193 131.171L258.897 128.462C259.368 127.999 259.645 127.374 259.673 126.714C259.701 126.053 259.478 125.407 259.048 124.905Z" fill="#FAFAFA"/>
<path d="M270.387 179.91C279.651 179.91 287.162 172.386 287.162 163.104C287.162 153.823 279.651 146.299 270.387 146.299C261.122 146.299 253.611 153.823 253.611 163.104C253.611 172.386 261.122 179.91 270.387 179.91Z" fill="url(#paint27_linear_5_1054)"/>
<path d="M271.89 154.504L273.241 158.466C273.346 158.778 273.545 159.05 273.811 159.243C274.076 159.437 274.396 159.543 274.724 159.547L278.89 159.608C279.223 159.609 279.546 159.715 279.815 159.911C280.084 160.107 280.284 160.382 280.388 160.699C280.492 161.015 280.494 161.356 280.393 161.674C280.293 161.991 280.095 162.269 279.829 162.467L276.459 164.974C276.198 165.172 276.004 165.446 275.903 165.759C275.802 166.072 275.799 166.408 275.894 166.722L277.135 170.714C277.234 171.032 277.231 171.374 277.126 171.69C277.021 172.007 276.82 172.283 276.551 172.479C276.281 172.675 275.957 172.782 275.624 172.785C275.291 172.787 274.966 172.685 274.694 172.492L271.284 170.077C271.015 169.89 270.694 169.79 270.366 169.79C270.038 169.79 269.718 169.89 269.448 170.077L266.039 172.492C265.767 172.681 265.443 172.78 265.112 172.775C264.781 172.771 264.46 172.664 264.192 172.468C263.925 172.273 263.725 171.999 263.621 171.684C263.516 171.37 263.511 171.031 263.608 170.714L264.859 166.752C264.956 166.438 264.953 166.101 264.852 165.789C264.751 165.476 264.556 165.202 264.294 165.004L260.955 162.498C260.689 162.3 260.491 162.023 260.391 161.706C260.29 161.39 260.291 161.05 260.393 160.734C260.496 160.418 260.695 160.142 260.962 159.946C261.229 159.749 261.551 159.641 261.883 159.638L266.059 159.577C266.386 159.571 266.703 159.464 266.967 159.271C267.23 159.077 267.428 158.806 267.532 158.496L268.883 154.535C268.985 154.217 269.184 153.94 269.452 153.742C269.72 153.544 270.043 153.436 270.376 153.433C270.708 153.429 271.034 153.531 271.305 153.723C271.577 153.916 271.782 154.189 271.89 154.504Z" fill="#FAFAFA"/>
<path d="M276.53 106.21C293.6 106.21 307.438 92.3469 307.438 75.2462C307.438 58.1456 293.6 44.2827 276.53 44.2827C259.46 44.2827 245.622 58.1456 245.622 75.2462C245.622 92.3469 259.46 106.21 276.53 106.21Z" fill="url(#paint28_linear_5_1054)"/>
<path d="M270.8 69.6173C270.8 72.7299 269.226 75.2461 267.29 75.2461C265.353 75.2461 263.779 72.7299 263.779 69.6173C263.779 66.5048 265.353 63.9885 267.29 63.9885C269.226 63.9885 270.8 66.5048 270.8 69.6173Z" fill="#FAFAFA"/>
<path d="M285.78 75.2461C287.719 75.2461 289.291 72.726 289.291 69.6173C289.291 66.5086 287.719 63.9885 285.78 63.9885C283.841 63.9885 282.27 66.5086 282.27 69.6173C282.27 72.726 283.841 75.2461 285.78 75.2461Z" fill="#FAFAFA"/>
<path d="M294.365 79.2379C292.856 82.7188 290.364 85.6821 287.196 87.7636C284.029 89.845 280.323 90.9539 276.535 90.9539C272.747 90.9539 269.041 89.845 265.873 87.7636C262.706 85.6821 260.214 82.7188 258.705 79.2379" stroke="#FAFAFA" stroke-width="2.8" stroke-miterlimit="10" stroke-linecap="round"/>
<path d="M200.47 50.447C211.116 50.447 219.747 41.8009 219.747 31.1353C219.747 20.4697 211.116 11.8235 200.47 11.8235C189.823 11.8235 181.193 20.4697 181.193 31.1353C181.193 41.8009 189.823 50.447 200.47 50.447Z" fill="url(#paint29_linear_5_1054)"/>
<path d="M209.771 23.1417C209.16 22.5288 208.436 22.0425 207.638 21.7106C206.84 21.3788 205.984 21.208 205.12 21.208C204.256 21.208 203.401 21.3788 202.603 21.7106C201.805 22.0425 201.08 22.5288 200.47 23.1417C199.862 22.5177 199.136 22.0209 198.335 21.6799C197.534 21.339 196.673 21.1607 195.803 21.1554C194.933 21.1501 194.07 21.318 193.265 21.6492C192.459 21.9805 191.728 22.4685 191.113 23.0851C190.497 23.7017 190.01 24.4345 189.679 25.2411C189.349 26.0477 189.181 26.912 189.186 27.7839C189.192 28.6558 189.37 29.5181 189.71 30.3206C190.05 31.1231 190.546 31.85 191.169 32.4591L200.47 41.7865L209.771 32.4591C210.382 31.8479 210.868 31.1218 211.199 30.3224C211.53 29.523 211.701 28.6659 211.701 27.8004C211.701 26.9348 211.53 26.0778 211.199 25.2784C210.868 24.4789 210.382 23.7529 209.771 23.1417Z" fill="url(#paint30_linear_5_1054)"/>
<g filter="url(#filter0_d_5_1054)">
<path d="M121.969 27.4064H30.4946C27.5475 27.4064 25.1583 29.7998 25.1583 32.7522V45.6975C25.1583 48.6499 27.5475 51.0433 30.4946 51.0433H121.969C124.916 51.0433 127.305 48.6499 127.305 45.6975V32.7522C127.305 29.7998 124.916 27.4064 121.969 27.4064Z" fill="url(#paint31_linear_5_1054)"/>
</g>
<g filter="url(#filter1_d_5_1054)">
<path d="M116.087 58.2283L105.99 48.1025H116.087V58.2283Z" fill="url(#paint32_linear_5_1054)"/>
</g>
<path d="M40.8545 33.5809L41.7321 36.178C41.7987 36.3909 41.9338 36.5758 42.1162 36.7038C42.2987 36.8317 42.5184 36.8956 42.7409 36.8854H45.4746C45.7048 36.8598 45.9368 36.9144 46.1315 37.04C46.3263 37.1655 46.472 37.3544 46.5442 37.5749C46.6163 37.7954 46.6106 38.034 46.5279 38.2507C46.4452 38.4674 46.2905 38.649 46.0899 38.765L43.8707 40.4324C43.6947 40.5577 43.5634 40.7362 43.4962 40.9418C43.4291 41.1473 43.4295 41.3691 43.4974 41.5744L44.3044 44.2018C44.4022 44.4145 44.4233 44.6545 44.364 44.881C44.3047 45.1075 44.1688 45.3063 43.9794 45.4435C43.79 45.5807 43.559 45.6478 43.3258 45.6333C43.0925 45.6188 42.8715 45.5236 42.7005 45.364L40.4611 43.7774C40.2874 43.6486 40.077 43.579 39.8609 43.579C39.6448 43.579 39.4344 43.6486 39.2607 43.7774L37.0212 45.364C36.8492 45.5173 36.63 45.6071 36.4 45.6184C36.1701 45.6297 35.9432 45.5618 35.757 45.4261C35.5708 45.2904 35.4366 45.0949 35.3767 44.8722C35.3167 44.6495 35.3346 44.4129 35.4274 44.2018L36.2344 41.5744C36.3024 41.3691 36.3028 41.1473 36.2356 40.9418C36.1684 40.7362 36.0372 40.5577 35.8612 40.4324L33.6722 38.7852C33.473 38.6694 33.3194 38.4887 33.2369 38.2733C33.1544 38.0579 33.1479 37.8207 33.2186 37.6011C33.2893 37.3815 33.433 37.1927 33.6256 37.0662C33.8182 36.9397 34.0482 36.883 34.2774 36.9056H37.0212C37.2438 36.9158 37.4634 36.8519 37.6458 36.724C37.8283 36.596 37.9634 36.4111 38.03 36.1982L38.9177 33.6011C38.9766 33.3905 39.1021 33.2047 39.2753 33.0717C39.4486 32.9386 39.6603 32.8655 39.8785 32.8632C40.0968 32.8609 40.3099 32.9297 40.4859 33.0591C40.6619 33.1885 40.7912 33.3716 40.8545 33.5809Z" fill="#FEC538"/>
<path d="M59.0423 33.5809L59.92 36.178C59.9866 36.3909 60.1217 36.5758 60.3041 36.7038C60.4866 36.8317 60.7063 36.8956 60.9288 36.8854H63.6625C63.8927 36.8598 64.1246 36.9144 64.3194 37.04C64.5142 37.1655 64.6599 37.3544 64.732 37.5749C64.8042 37.7954 64.7984 38.034 64.7157 38.2507C64.633 38.4674 64.4784 38.649 64.2778 38.765L62.0485 40.4324C61.8742 40.5591 61.745 40.7382 61.6797 40.9437C61.6143 41.1491 61.6163 41.3701 61.6853 41.5744L62.4923 44.2018C62.5901 44.4145 62.6111 44.6545 62.5519 44.881C62.4926 45.1075 62.3567 45.3063 62.1673 45.4435C61.9779 45.5807 61.7469 45.6478 61.5136 45.6333C61.2804 45.6188 61.0594 45.5236 60.8884 45.364L58.649 43.7774C58.4753 43.6486 58.2648 43.579 58.0487 43.579C57.8326 43.579 57.6222 43.6486 57.4486 43.7774L55.2091 45.364C55.0371 45.5173 54.8179 45.6071 54.5879 45.6184C54.3579 45.6297 54.131 45.5618 53.9449 45.4261C53.7587 45.2904 53.6245 45.0949 53.5645 44.8722C53.5046 44.6495 53.5225 44.4129 53.6153 44.2018L54.4223 41.5744C54.4903 41.3691 54.4907 41.1473 54.4235 40.9418C54.3563 40.7362 54.225 40.5577 54.049 40.4324L51.86 38.7852C51.6609 38.6694 51.5073 38.4887 51.4247 38.2733C51.3422 38.0579 51.3358 37.8207 51.4065 37.6011C51.4772 37.3815 51.6208 37.1927 51.8134 37.0662C52.006 36.9397 52.2361 36.883 52.4653 36.9056H55.2091C55.4316 36.9158 55.6512 36.8519 55.8337 36.724C56.0162 36.596 56.1513 36.4111 56.2179 36.1982L57.1055 33.6011C57.1644 33.3905 57.29 33.2047 57.4632 33.0717C57.6365 32.9386 57.8481 32.8655 58.0664 32.8632C58.2847 32.8609 58.4978 32.9297 58.6738 33.0591C58.8498 33.1885 58.9791 33.3716 59.0423 33.5809Z" fill="#FEC538"/>
<path d="M77.2201 33.5808L78.1078 36.1779C78.1744 36.3909 78.3095 36.5757 78.492 36.7037C78.6744 36.8317 78.8941 36.8955 79.1166 36.8853H81.8503C82.0805 36.8598 82.3125 36.9144 82.5072 37.0399C82.702 37.1655 82.8477 37.3544 82.9199 37.5748C82.9921 37.7953 82.9863 38.0339 82.9036 38.2506C82.8209 38.4674 82.6663 38.649 82.4657 38.765L80.2363 40.4324C80.0603 40.5576 79.9291 40.7362 79.8619 40.9417C79.7947 41.1473 79.7951 41.369 79.8631 41.5743L80.6801 44.2018C80.7779 44.4144 80.799 44.6545 80.7397 44.8809C80.6804 45.1074 80.5445 45.3062 80.3551 45.4434C80.1658 45.5806 79.9347 45.6477 79.7014 45.6332C79.4682 45.6187 79.2472 45.5235 79.0763 45.3639L76.8368 43.7773C76.6631 43.6485 76.4527 43.579 76.2366 43.579C76.0205 43.579 75.8101 43.6485 75.6364 43.7773L73.397 45.3639C73.225 45.5172 73.0058 45.607 72.7758 45.6183C72.5458 45.6296 72.3189 45.5618 72.1327 45.426C71.9465 45.2903 71.8123 45.0948 71.7524 44.8721C71.6924 44.6494 71.7103 44.4129 71.8031 44.2018L72.6101 41.5743C72.6781 41.369 72.6785 41.1473 72.6113 40.9417C72.5442 40.7362 72.4129 40.5576 72.2369 40.4324L70.0479 38.7852C69.8487 38.6693 69.6951 38.4887 69.6126 38.2732C69.5301 38.0578 69.5237 37.8206 69.5944 37.601C69.6651 37.3814 69.8087 37.1927 70.0013 37.0661C70.1939 36.9396 70.4239 36.8829 70.6531 36.9055H73.397C73.6195 36.9157 73.8391 36.8519 74.0216 36.7239C74.2041 36.5959 74.3391 36.4111 74.4057 36.1981L75.2934 33.601C75.3551 33.3944 75.4811 33.2129 75.6531 33.0831C75.8251 32.9534 76.0341 32.8822 76.2494 32.8799C76.4646 32.8777 76.675 32.9445 76.8497 33.0706C77.0243 33.1967 77.1541 33.3755 77.2201 33.5808Z" fill="#FEC538"/>
<path d="M95.408 33.5809L96.2957 36.178C96.3623 36.3909 96.4974 36.5758 96.6798 36.7038C96.8623 36.8317 97.082 36.8956 97.3045 36.8854H100.048C100.277 36.8628 100.508 36.9195 100.7 37.046C100.893 37.1725 101.036 37.3612 101.107 37.5808C101.178 37.8004 101.171 38.0377 101.089 38.2531C101.006 38.4685 100.853 38.6492 100.653 38.765L98.4242 40.4324C98.2482 40.5577 98.1169 40.7362 98.0497 40.9418C97.9825 41.1474 97.983 41.3691 98.0509 41.5744L98.8579 44.2018C98.9507 44.4129 98.9686 44.6495 98.9087 44.8722C98.8487 45.0949 98.7145 45.2904 98.5283 45.4261C98.3422 45.5618 98.1152 45.6297 97.8853 45.6184C97.6553 45.6071 97.4361 45.5173 97.2641 45.364L95.0247 43.7774C94.851 43.6486 94.6405 43.579 94.4244 43.579C94.2083 43.579 93.9979 43.6486 93.8242 43.7774L91.5848 45.364C91.4138 45.5236 91.1929 45.6188 90.9596 45.6333C90.7264 45.6478 90.4953 45.5807 90.3059 45.4435C90.1166 45.3063 89.9806 45.1075 89.9214 44.881C89.8621 44.6545 89.8831 44.4145 89.9809 44.2018L90.798 41.5744C90.8659 41.3691 90.8663 41.1474 90.7992 40.9418C90.732 40.7362 90.6008 40.5577 90.4248 40.4324L88.2257 38.7852C88.0251 38.6692 87.8704 38.4876 87.7877 38.2709C87.705 38.0542 87.6992 37.8156 87.7714 37.5951C87.8436 37.3746 87.9893 37.1857 88.1841 37.0602C88.3788 36.9346 88.6108 36.88 88.841 36.9056H91.5747C91.7972 36.9158 92.0168 36.8519 92.1993 36.724C92.3818 36.596 92.5168 36.4111 92.5834 36.1982L93.4611 33.6011C93.5169 33.3864 93.6417 33.196 93.8162 33.0594C93.9908 32.9228 94.2054 32.8476 94.4268 32.8453C94.6483 32.843 94.8643 32.9138 95.0417 33.0467C95.219 33.1796 95.3477 33.3674 95.408 33.5809Z" fill="#FEC538"/>
<path d="M113.596 33.5809L114.483 36.178C114.55 36.3909 114.685 36.5758 114.868 36.7038C115.05 36.8317 115.27 36.8956 115.492 36.8854H118.236C118.465 36.8628 118.695 36.9195 118.888 37.046C119.081 37.1725 119.224 37.3612 119.295 37.5808C119.366 37.8004 119.359 38.0377 119.277 38.2531C119.194 38.4685 119.04 38.6492 118.841 38.765L116.612 40.4324C116.436 40.5577 116.305 40.7362 116.238 40.9418C116.17 41.1474 116.171 41.3691 116.239 41.5744L117.046 44.2018C117.138 44.4129 117.156 44.6495 117.096 44.8722C117.036 45.0949 116.902 45.2904 116.716 45.4261C116.53 45.5618 116.303 45.6297 116.073 45.6184C115.843 45.6071 115.624 45.5173 115.452 45.364L113.212 43.7774C113.039 43.6486 112.828 43.579 112.612 43.579C112.396 43.579 112.186 43.6486 112.012 43.7774L109.773 45.364C109.602 45.5236 109.381 45.6188 109.147 45.6333C108.914 45.6478 108.683 45.5807 108.494 45.4435C108.304 45.3063 108.168 45.1075 108.109 44.881C108.05 44.6545 108.071 44.4145 108.169 44.2018L108.976 41.5744C109.045 41.3701 109.047 41.1491 108.981 40.9437C108.916 40.7382 108.787 40.5591 108.612 40.4324L106.413 38.7852C106.213 38.6692 106.058 38.4876 105.975 38.2709C105.893 38.0542 105.887 37.8156 105.959 37.5951C106.031 37.3746 106.177 37.1857 106.372 37.0602C106.567 36.9346 106.799 36.88 107.029 36.9056H109.762C109.985 36.9158 110.205 36.8519 110.387 36.724C110.57 36.596 110.705 36.4111 110.771 36.1982L111.649 33.6011C111.705 33.3864 111.83 33.196 112.004 33.0594C112.179 32.9228 112.393 32.8476 112.615 32.8453C112.836 32.843 113.052 32.9138 113.229 33.0467C113.407 33.1796 113.535 33.3674 113.596 33.5809Z" fill="#FEC538"/>
<path d="M255.346 14.6127C255.348 15.1647 255.186 15.705 254.882 16.165C254.577 16.625 254.143 16.984 253.634 17.1967C253.126 17.4093 252.566 17.466 252.025 17.3596C251.484 17.2531 250.987 16.9882 250.597 16.5986C250.206 16.2089 249.94 15.712 249.832 15.1706C249.724 14.6293 249.778 14.068 249.989 13.5578C250.199 13.0475 250.556 12.6113 251.014 12.3044C251.472 11.9975 252.011 11.8336 252.562 11.8336C252.927 11.8323 253.289 11.9032 253.627 12.0423C253.964 12.1813 254.271 12.3858 254.53 12.644C254.789 12.9022 254.994 13.209 255.134 13.5468C255.274 13.8847 255.346 14.2469 255.346 14.6127Z" fill="#574AA4"/>
<path d="M103.932 22.9599C104.901 22.9599 105.687 22.1726 105.687 21.2015C105.687 20.2304 104.901 19.4431 103.932 19.4431C102.963 19.4431 102.177 20.2304 102.177 21.2015C102.177 22.1726 102.963 22.9599 103.932 22.9599Z" fill="#574AA4"/>
<path d="M48.1781 78.3992C48.1801 78.9512 48.0184 79.4915 47.7137 79.9515C47.409 80.4115 46.9749 80.7705 46.4663 80.9832C45.9578 81.1958 45.3977 81.2525 44.8569 81.146C44.3162 81.0396 43.8191 80.7747 43.4288 80.3851C43.0384 79.9954 42.7722 79.4984 42.664 78.9571C42.5557 78.4158 42.6103 77.8545 42.8207 77.3443C43.0311 76.834 43.388 76.3978 43.846 76.0909C44.3041 75.784 44.8428 75.6201 45.3939 75.6201C45.759 75.6188 46.1208 75.6897 46.4586 75.8288C46.7963 75.9678 47.1033 76.1723 47.362 76.4305C47.6206 76.6887 47.8259 76.9955 47.9659 77.3333C48.106 77.6712 48.1781 78.0334 48.1781 78.3992Z" fill="#FFDE80"/>
<path d="M65.8917 20.6355C66.5491 20.6355 67.0821 20.1016 67.0821 19.4431C67.0821 18.7845 66.5491 18.2506 65.8917 18.2506C65.2343 18.2506 64.7014 18.7845 64.7014 19.4431C64.7014 20.1016 65.2343 20.6355 65.8917 20.6355Z" fill="#FFDE80"/>
<path d="M57.0853 105.3C57.6202 105.3 58.0538 104.866 58.0538 104.33C58.0538 103.794 57.6202 103.36 57.0853 103.36C56.5505 103.36 56.1169 103.794 56.1169 104.33C56.1169 104.866 56.5505 105.3 57.0853 105.3Z" fill="#574AA4"/>
<path d="M61.8568 66.2926C61.7929 66.4985 61.6649 66.6786 61.4916 66.8065C61.3183 66.9344 61.1087 67.0034 60.8934 67.0034C60.6781 67.0034 60.4685 66.9344 60.2952 66.8065C60.1218 66.6786 59.9939 66.4985 59.93 66.2926C59.8831 66.1414 59.8724 65.9812 59.8987 65.825C59.9249 65.6689 59.9874 65.5211 60.0812 65.3935C60.1749 65.266 60.2973 65.1624 60.4384 65.0909C60.5795 65.0195 60.7353 64.9823 60.8934 64.9823C61.0515 64.9823 61.2074 65.0195 61.3484 65.0909C61.4895 65.1624 61.6119 65.266 61.7056 65.3935C61.7994 65.5211 61.8619 65.6689 61.8882 65.825C61.9144 65.9812 61.9036 66.1414 61.8568 66.2926Z" fill="#574AA4"/>
<path d="M297.572 107.321C297.619 107.473 297.63 107.633 297.604 107.789C297.578 107.945 297.515 108.093 297.421 108.22C297.328 108.348 297.205 108.452 297.064 108.523C296.923 108.594 296.767 108.632 296.609 108.632C296.451 108.632 296.295 108.594 296.154 108.523C296.013 108.452 295.891 108.348 295.797 108.22C295.703 108.093 295.641 107.945 295.614 107.789C295.588 107.633 295.599 107.473 295.646 107.321C295.71 107.115 295.838 106.935 296.011 106.807C296.184 106.679 296.394 106.61 296.609 106.61C296.824 106.61 297.034 106.679 297.207 106.807C297.381 106.935 297.509 107.115 297.572 107.321Z" fill="#FFDE80"/>
<path d="M147.187 10.8635C147.187 11.3971 147.029 11.9188 146.734 12.3625C146.438 12.8062 146.017 13.1521 145.525 13.3563C145.033 13.5605 144.491 13.6139 143.969 13.5098C143.446 13.4057 142.966 13.1487 142.59 12.7714C142.213 12.394 141.956 11.9133 141.852 11.3899C141.748 10.8665 141.802 10.3239 142.006 9.83091C142.21 9.33788 142.555 8.91648 142.998 8.62C143.441 8.32352 143.961 8.16528 144.494 8.16528C145.208 8.16795 145.891 8.45307 146.396 8.9585C146.9 9.46393 147.185 10.1487 147.187 10.8635Z" fill="#FFDE80"/>
<path d="M275.178 29.0131C275.178 29.251 275.108 29.4835 274.976 29.6812C274.844 29.879 274.657 30.0331 274.437 30.1241C274.218 30.2152 273.976 30.239 273.744 30.1926C273.511 30.1462 273.297 30.0316 273.129 29.8635C272.961 29.6953 272.847 29.481 272.8 29.2477C272.754 29.0145 272.778 28.7727 272.869 28.5529C272.96 28.3332 273.113 28.1454 273.311 28.0132C273.508 27.8811 273.74 27.8105 273.978 27.8105C274.296 27.8105 274.601 27.9372 274.827 28.1628C275.052 28.3883 275.178 28.6942 275.178 29.0131Z" fill="#FFDE80"/>
<path d="M296.604 24.1119V26.8101" stroke="#574AA4" stroke-linecap="round" stroke-linejoin="round"/>
<path d="M297.946 25.4559H295.252" stroke="#574AA4" stroke-linecap="round" stroke-linejoin="round"/>
<path d="M41.0865 7.29614V9.99434" stroke="#FFDE80" stroke-linecap="round" stroke-linejoin="round"/>
<path d="M42.4281 8.64026H39.7347" stroke="#FFDE80" stroke-linecap="round" stroke-linejoin="round"/>
<path d="M127.305 0.505249V3.20344" stroke="#574AA4" stroke-linecap="round" stroke-linejoin="round"/>
<path d="M128.646 1.84924H125.963" stroke="#574AA4" stroke-linecap="round" stroke-linejoin="round"/>
<path d="M19.126 93.9617V96.6599" stroke="#FFDE80" stroke-linecap="round" stroke-linejoin="round"/>
<path d="M20.4777 95.3159H17.7843" stroke="#FFDE80" stroke-linecap="round" stroke-linejoin="round"/>
<path d="M331.154 95.3159V98.004" stroke="#FFDE80" stroke-linecap="round" stroke-linejoin="round"/>
<path d="M332.496 96.6599H329.802" stroke="#FFDE80" stroke-linecap="round" stroke-linejoin="round"/>
<path d="M33.6016 214.804H321.238" stroke="#212042" stroke-width="2" stroke-linecap="round" stroke-linejoin="round"/>
<path d="M15.9382 214.804H27.5994" stroke="#212042" stroke-width="2" stroke-linecap="round" stroke-linejoin="round"/>
<path d="M221.805 213.784H217.679V219.483H221.805V213.784Z" fill="#F6A19E"/>
<path d="M191.24 219.16H195.376L196.657 213.46H192.531L191.24 219.16Z" fill="#F6A19E"/>
<path d="M179.498 106.846C179.498 106.846 179.407 103.38 178.378 102.754C177.349 102.127 176.038 99.1459 176.038 99.1459C175.67 99.4492 175.426 99.877 175.352 100.348C175.4 100.916 175.515 101.475 175.695 102.016C174.948 101.705 174.159 101.504 173.354 101.42C169.824 101.056 169.229 99.1762 168.815 99.3985C168.486 99.8717 168.303 100.431 168.287 101.007C168.27 101.583 168.423 102.152 168.724 102.642C169.701 104.208 171.15 105.421 172.86 106.109C174.685 106.876 176.313 108.047 177.622 109.534L180.103 107.513L179.498 106.846Z" fill="#F6A19E"/>
<path d="M221.462 86.615C221.398 87.4377 221.197 88.2438 220.867 88.9999C220.493 89.9283 219.889 90.7457 219.112 91.3747C218.163 92.3853 217.366 93.9921 216.025 93.9921C214.229 93.9921 214.945 88.3127 215.641 87.3628C216.337 86.4129 219.848 85.0082 221.462 86.615Z" fill="#1B1B44"/>
<path d="M218.183 97.9535C218.183 97.9535 225.245 100.096 227.444 103.259C229.643 106.422 229.239 114.153 226.486 123.531C224.791 129.783 224.05 136.257 224.286 142.731H200.853C200.853 142.731 200.308 128.927 199.754 119.418C199.199 109.908 198.533 103.249 200.883 101.773C203.492 100.127 206.317 98.8515 209.276 97.9838L218.183 97.9535Z" fill="url(#paint33_linear_5_1054)"/>
<path d="M216.509 89.2626V100.359L212.555 99.7926L209.276 100.359V89.2626H216.509Z" fill="#F6A19E"/>
<path opacity="0.42" d="M216.509 90.6168C216.509 90.6168 215.813 95.2351 209.276 94.8207V91.6072L216.509 90.6168Z" fill="#F26463"/>
<path d="M200.389 102.188C200.389 102.188 197.696 105.563 195.255 109.262C192.813 112.96 190.836 115.911 190.836 115.911C190.836 115.911 181.818 107.918 180.305 106.26C178.727 107.271 177.427 108.66 176.522 110.302C176.522 110.302 184.592 119.953 186.428 121.681C188.264 123.409 189.807 124.086 193.308 121.126C196.808 118.165 201.297 113.546 201.297 113.546C201.297 113.546 203.486 106.826 200.389 102.188Z" fill="url(#paint34_linear_5_1054)"/>
<path d="M224.287 142.701C225.995 167.628 225.431 192.658 222.602 217.482H216.822C216.822 217.482 212.999 170.936 211.778 159.628L197.322 217.482H190.584C190.584 217.482 199.239 146.197 200.873 142.701H224.287Z" fill="#1B1B44"/>
<path d="M195.547 218.584C195.891 219.008 196.132 219.506 196.253 220.039C196.566 221.252 196.616 223.01 195.648 223.01H184.784C183.775 223.01 183.422 221.09 185.036 220.797C186.313 220.705 187.569 220.415 188.758 219.938C189.858 219.342 191.411 218.432 191.411 218.432C192.782 218.61 194.167 218.661 195.547 218.584Z" fill="#1B1B44"/>
<path d="M213.251 101.905L214.532 129.705L211.374 135.486C210.228 133.621 209.191 131.69 208.267 129.705C208.267 129.705 209.448 109.373 211.616 101.905H213.251Z" fill="#FFC214"/>
<path d="M212.595 99.7926C213.174 100.225 213.641 100.79 213.957 101.44C214.159 102.198 213.009 103.037 212.353 103.037C211.697 103.037 211.082 102.026 211.132 101.551C211.226 101.165 211.406 100.806 211.66 100.502C211.913 100.197 212.233 99.9543 212.595 99.7926Z" fill="#FFC214"/>
<path d="M205.655 80.8547C205.611 83.3533 205.691 85.8525 205.897 88.343C206.024 90.3733 206.885 92.2878 208.318 93.7292C209.407 94.6488 214.895 94.8308 216.509 90.6268C217.891 90.9603 219.747 89.0504 219.081 87.7568C218.928 87.5669 218.737 87.4117 218.519 87.3017C218.302 87.1917 218.064 87.1293 217.82 87.1188C217.577 87.1083 217.334 87.1498 217.108 87.2407C216.882 87.3315 216.678 87.4696 216.509 87.6457C216.509 84.4624 216.509 80.6425 212.817 79.8341C211.243 79.4905 208.59 79.2985 207.037 80.016C206.563 80.2282 205.675 80.3191 205.655 80.8547Z" fill="#F6A19E"/>
<path d="M222.703 80.5415C222.718 80.3464 222.718 80.1504 222.703 79.9554C222.703 78.3991 220.756 77.7928 219.939 76.7014C218.728 75.0845 217.77 73.8415 215.561 74.0941C213.352 74.3468 211.132 75.8121 208.883 75.2967C207.561 75.0036 206.563 74.1042 205.15 74.5186C201.66 75.5291 203.234 80.1373 205.978 80.976C207.228 81.36 208.086 81.9866 209.448 81.9866C210.598 81.8236 211.732 81.5598 212.837 81.1983C213.94 80.9508 215.083 80.9508 216.186 81.1983C217.619 81.5925 218.93 82.603 220.443 82.6839C221.956 82.7647 222.541 81.7339 222.703 80.5415Z" fill="#1B1B44"/>
<path d="M214.764 85.0082C215.247 85.351 215.639 85.8059 215.908 86.3339C216.177 86.8619 216.314 87.4472 216.307 88.0399C216.436 87.8101 216.612 87.6107 216.823 87.455C217.035 87.2993 217.278 87.1909 217.535 87.1373C217.793 87.0837 218.058 87.0859 218.315 87.144C218.571 87.2021 218.812 87.3146 219.021 87.4739C219.294 87.6486 219.601 87.7648 219.921 87.815C220.241 87.8653 220.569 87.8486 220.882 87.7661C221.196 87.6835 221.489 87.5368 221.743 87.3352C221.998 87.1336 222.207 86.8815 222.36 86.5948C222.942 85.598 223.177 84.4353 223.026 83.2902C222.986 82.3547 222.712 81.4443 222.229 80.6426C221.818 79.8587 221.21 79.1966 220.463 78.7225C219.765 78.4184 218.994 78.327 218.244 78.4598C217.509 78.578 216.793 78.7956 216.116 79.1065C215.604 79.3052 215.15 79.6282 214.794 80.0463C214.572 80.3667 214.376 80.7046 214.209 81.0569C213.829 81.6775 213.676 82.4114 213.777 83.1325C213.879 83.8536 214.227 84.5168 214.764 85.0082Z" fill="#1B1B44"/>
<path d="M216.509 96.9226C216.211 97.7422 215.675 98.4541 214.97 98.9671C214.266 99.4802 213.425 99.7711 212.555 99.8027C212.555 99.8027 212.736 102.299 214.764 102.642C216.791 102.986 218.183 97.9534 218.183 97.9534C218.022 97.6469 217.782 97.3894 217.487 97.208C217.193 97.0267 216.855 96.9281 216.509 96.9226Z" fill="#FAFAFA"/>
<path d="M212.555 99.8028C212.555 99.8028 209.72 98.9741 209.276 97.1956C209.016 97.2753 208.784 97.4265 208.606 97.632C208.427 97.8374 208.31 98.0888 208.267 98.3577C208.222 98.9972 208.345 99.6374 208.625 100.214C208.904 100.791 209.331 101.283 209.861 101.642C211.505 102.562 212.555 99.8028 212.555 99.8028Z" fill="#FAFAFA"/>
<path d="M219.626 142.701C219.626 142.701 218.234 148.32 224.569 149.775C224.569 149.775 224.327 144.54 224.286 142.701H219.626Z" fill="#161638"/>
<path d="M225.013 142.701C224.403 143.43 223.633 144.008 222.763 144.389C221.721 144.785 220.724 145.289 219.787 145.894C219.787 145.894 220.302 148.805 224.569 149.765C224.569 149.765 226.849 147.632 227.051 146.804C227.252 145.975 228.059 143.287 228.059 143.287L225.013 142.701Z" fill="#F6A19E"/>
<path d="M227.444 103.259C227.444 103.259 235.161 116.396 236.805 122.015C238.449 127.634 228.322 144.389 228.322 144.389C228.322 144.389 226.909 144.389 224.569 142.317L229.925 126.33L225.104 117.781C225.104 117.781 222.632 107.534 227.444 103.259Z" fill="url(#paint35_linear_5_1054)"/>
<path d="M221.815 218.927C221.815 218.927 223.449 221.151 223.288 221.535C222.952 222.062 222.567 222.556 222.138 223.01H217.659C217.313 222.869 217.016 222.631 216.803 222.324C216.59 222.018 216.47 221.656 216.458 221.282C216.748 220.46 217.159 219.687 217.679 218.988C219.051 219.209 220.45 219.189 221.815 218.927Z" fill="#1B1B44"/>
</g>
<defs>
<filter id="filter0_d_5_1054" x="21.1583" y="27.4064" width="110.146" height="31.637" filterUnits="userSpaceOnUse" color-interpolation-filters="sRGB">
<feFlood flood-opacity="0" result="BackgroundImageFix"/>
<feColorMatrix in="SourceAlpha" type="matrix" values="0 0 0 0 0 0 0 0 0 0 0 0 0 0 0 0 0 0 127 0" result="hardAlpha"/>
<feOffset dy="4"/>
<feGaussianBlur stdDeviation="2"/>
<feComposite in2="hardAlpha" operator="out"/>
<feColorMatrix type="matrix" values="0 0 0 0 0 0 0 0 0 0 0 0 0 0 0 0 0 0 0.25 0"/>
<feBlend mode="normal" in2="BackgroundImageFix" result="effect1_dropShadow_5_1054"/>
<feBlend mode="normal" in="SourceGraphic" in2="effect1_dropShadow_5_1054" result="shape"/>
</filter>
<filter id="filter1_d_5_1054" x="101.99" y="48.1025" width="18.0977" height="18.1259" filterUnits="userSpaceOnUse" color-interpolation-filters="sRGB">
<feFlood flood-opacity="0" result="BackgroundImageFix"/>
<feColorMatrix in="SourceAlpha" type="matrix" values="0 0 0 0 0 0 0 0 0 0 0 0 0 0 0 0 0 0 127 0" result="hardAlpha"/>
<feOffset dy="4"/>
<feGaussianBlur stdDeviation="2"/>
<feComposite in2="hardAlpha" operator="out"/>
<feColorMatrix type="matrix" values="0 0 0 0 0 0 0 0 0 0 0 0 0 0 0 0 0 0 0.25 0"/>
<feBlend mode="normal" in2="BackgroundImageFix" result="effect1_dropShadow_5_1054"/>
<feBlend mode="normal" in="SourceGraphic" in2="effect1_dropShadow_5_1054" result="shape"/>
</filter>
<linearGradient id="paint0_linear_5_1054" x1="160.21" y1="-30.7918" x2="160.21" y2="233.217" gradientUnits="userSpaceOnUse">
<stop offset="0.26" stop-color="#BBB4F8"/>
<stop offset="1" stop-color="#BB88F8"/>
</linearGradient>
<linearGradient id="paint1_linear_5_1054" x1="196.667" y1="-30.7917" x2="196.667" y2="233.217" gradientUnits="userSpaceOnUse">
<stop offset="0.26" stop-color="#BBB4F8"/>
<stop offset="1" stop-color="#BB88F8"/>
</linearGradient>
<linearGradient id="paint2_linear_5_1054" x1="323.286" y1="160.073" x2="266.741" y2="194.342" gradientUnits="userSpaceOnUse">
<stop stop-color="#7168C1"/>
<stop offset="1" stop-color="#4C477C"/>
</linearGradient>
<linearGradient id="paint3_linear_5_1054" x1="313.238" y1="108.716" x2="264.707" y2="173.814" gradientUnits="userSpaceOnUse">
<stop stop-color="#BBB4F8"/>
<stop offset="1" stop-color="#7168C1"/>
</linearGradient>
<linearGradient id="paint4_linear_5_1054" x1="-17.0379" y1="177.676" x2="46.5222" y2="190.265" gradientUnits="userSpaceOnUse">
<stop stop-color="#BBB4F8"/>
<stop offset="1" stop-color="#7168C1"/>
</linearGradient>
<linearGradient id="paint5_linear_5_1054" x1="-16.5638" y1="83.2598" x2="52.6828" y2="167.015" gradientUnits="userSpaceOnUse">
<stop stop-color="#EFEEFE"/>
<stop offset="1" stop-color="#BBB4F8"/>
</linearGradient>
<linearGradient id="paint6_linear_5_1054" x1="31.0494" y1="156.707" x2="83.0894" y2="206.637" gradientUnits="userSpaceOnUse">
<stop stop-color="#7168C1"/>
<stop offset="1" stop-color="#4C477C"/>
</linearGradient>
<linearGradient id="paint7_linear_5_1054" x1="171.216" y1="65.9187" x2="171.216" y2="207.933" gradientUnits="userSpaceOnUse">
<stop stop-color="#4C477C"/>
<stop offset="1" stop-color="#212042"/>
</linearGradient>
<linearGradient id="paint8_linear_5_1054" x1="85.2599" y1="30.6705" x2="241.952" y2="222.402" gradientUnits="userSpaceOnUse">
<stop stop-color="#BBB4F8"/>
<stop offset="1" stop-color="#7168C1"/>
</linearGradient>
<linearGradient id="paint9_linear_5_1054" x1="171.216" y1="30.5492" x2="171.216" y2="370.986" gradientUnits="userSpaceOnUse">
<stop stop-color="white"/>
<stop offset="0.36" stop-color="#EFEEFE"/>
<stop offset="0.74" stop-color="#BBB4F8"/>
</linearGradient>
<linearGradient id="paint10_linear_5_1054" x1="134.388" y1="53.481" x2="134.388" y2="79.0885" gradientUnits="userSpaceOnUse">
<stop offset="0.26" stop-color="#BBB4F8"/>
<stop offset="1" stop-color="#BB88F8"/>
</linearGradient>
<linearGradient id="paint11_linear_5_1054" x1="134.396" y1="60.2596" x2="134.396" y2="70.2944" gradientUnits="userSpaceOnUse">
<stop stop-color="white"/>
<stop offset="0.36" stop-color="#EFEEFE"/>
<stop offset="0.74" stop-color="#BBB4F8"/>
</linearGradient>
<linearGradient id="paint12_linear_5_1054" x1="134.396" y1="66.3937" x2="134.396" y2="77.8636" gradientUnits="userSpaceOnUse">
<stop stop-color="white"/>
<stop offset="0.36" stop-color="#EFEEFE"/>
<stop offset="0.74" stop-color="#BBB4F8"/>
</linearGradient>
<linearGradient id="paint13_linear_5_1054" x1="134.435" y1="89.9861" x2="134.435" y2="115.594" gradientUnits="userSpaceOnUse">
<stop offset="0.26" stop-color="#BBB4F8"/>
<stop offset="1" stop-color="#BB88F8"/>
</linearGradient>
<linearGradient id="paint14_linear_5_1054" x1="134.396" y1="96.7811" x2="134.396" y2="106.816" gradientUnits="userSpaceOnUse">
<stop stop-color="white"/>
<stop offset="0.36" stop-color="#EFEEFE"/>
<stop offset="0.74" stop-color="#BBB4F8"/>
</linearGradient>
<linearGradient id="paint15_linear_5_1054" x1="134.396" y1="102.915" x2="134.396" y2="114.385" gradientUnits="userSpaceOnUse">
<stop stop-color="white"/>
<stop offset="0.36" stop-color="#EFEEFE"/>
<stop offset="0.74" stop-color="#BBB4F8"/>
</linearGradient>
<linearGradient id="paint16_linear_5_1054" x1="134.385" y1="126.537" x2="134.385" y2="152.144" gradientUnits="userSpaceOnUse">
<stop offset="0.26" stop-color="#BBB4F8"/>
<stop offset="1" stop-color="#BB88F8"/>
</linearGradient>
<linearGradient id="paint17_linear_5_1054" x1="134.396" y1="133.303" x2="134.396" y2="143.338" gradientUnits="userSpaceOnUse">
<stop stop-color="white"/>
<stop offset="0.36" stop-color="#EFEEFE"/>
<stop offset="0.74" stop-color="#BBB4F8"/>
</linearGradient>
<linearGradient id="paint18_linear_5_1054" x1="134.396" y1="139.447" x2="134.396" y2="150.917" gradientUnits="userSpaceOnUse">
<stop stop-color="white"/>
<stop offset="0.36" stop-color="#EFEEFE"/>
<stop offset="0.74" stop-color="#BBB4F8"/>
</linearGradient>
<linearGradient id="paint19_linear_5_1054" x1="134.396" y1="163.064" x2="134.396" y2="188.671" gradientUnits="userSpaceOnUse">
<stop offset="0.26" stop-color="#BBB4F8"/>
<stop offset="1" stop-color="#BB88F8"/>
</linearGradient>
<linearGradient id="paint20_linear_5_1054" x1="134.396" y1="169.834" x2="134.396" y2="179.869" gradientUnits="userSpaceOnUse">
<stop stop-color="white"/>
<stop offset="0.36" stop-color="#EFEEFE"/>
<stop offset="0.74" stop-color="#BBB4F8"/>
</linearGradient>
<linearGradient id="paint21_linear_5_1054" x1="134.396" y1="175.969" x2="134.396" y2="187.438" gradientUnits="userSpaceOnUse">
<stop stop-color="white"/>
<stop offset="0.36" stop-color="#EFEEFE"/>
<stop offset="0.74" stop-color="#BBB4F8"/>
</linearGradient>
<linearGradient id="paint22_linear_5_1054" x1="171.216" y1="202.354" x2="171.216" y2="224.223" gradientUnits="userSpaceOnUse">
<stop stop-color="#867AD1"/>
<stop offset="0.34" stop-color="#5C5495"/>
<stop offset="0.64" stop-color="#3C3868"/>
<stop offset="0.87" stop-color="#28274C"/>
<stop offset="1" stop-color="#212042"/>
</linearGradient>
<linearGradient id="paint23_linear_5_1054" x1="171.216" y1="212.803" x2="171.216" y2="203.506" gradientUnits="userSpaceOnUse">
<stop stop-color="#867AD1"/>
<stop offset="1" stop-color="#212042"/>
</linearGradient>
<linearGradient id="paint24_linear_5_1054" x1="72.4503" y1="117.462" x2="72.4503" y2="154.974" gradientUnits="userSpaceOnUse">
<stop offset="0.9999" stop-color="#1E617A"/>
<stop offset="1" stop-color="#FF9800"/>
</linearGradient>
<linearGradient id="paint25_linear_5_1054" x1="91.1712" y1="95.3159" x2="91.1712" y2="110.313" gradientUnits="userSpaceOnUse">
<stop stop-color="#FEC538"/>
<stop offset="1" stop-color="#FF9800"/>
</linearGradient>
<linearGradient id="paint26_linear_5_1054" x1="255.334" y1="120.278" x2="255.333" y2="135.274" gradientUnits="userSpaceOnUse">
<stop stop-color="#FEC538"/>
<stop offset="1" stop-color="#FF9800"/>
</linearGradient>
<linearGradient id="paint27_linear_5_1054" x1="270.387" y1="146.299" x2="270.387" y2="179.91" gradientUnits="userSpaceOnUse">
<stop stop-color="#FEC538"/>
<stop offset="1" stop-color="#FF9800"/>
</linearGradient>
<linearGradient id="paint28_linear_5_1054" x1="276.53" y1="44.2827" x2="276.53" y2="106.2" gradientUnits="userSpaceOnUse">
<stop offset="0.9999" stop-color="#1E617A"/>
<stop offset="1" stop-color="white"/>
</linearGradient>
<linearGradient id="paint29_linear_5_1054" x1="200.47" y1="11.3485" x2="200.743" y2="50.5279" gradientUnits="userSpaceOnUse">
<stop offset="0.9999" stop-color="#1E617A"/>
<stop offset="1" stop-color="#574AA4"/>
</linearGradient>
<linearGradient id="paint30_linear_5_1054" x1="200.47" y1="19.059" x2="200.47" y2="59.9159" gradientUnits="userSpaceOnUse">
<stop stop-color="white"/>
<stop offset="0.36" stop-color="#EFEEFE"/>
<stop offset="0.74" stop-color="#BBB4F8"/>
</linearGradient>
<linearGradient id="paint31_linear_5_1054" x1="76.2316" y1="29.5892" x2="76.2316" y2="54.934" gradientUnits="userSpaceOnUse">
<stop offset="0.9999" stop-color="white"/>
<stop offset="1" stop-color="white"/>
</linearGradient>
<linearGradient id="paint32_linear_5_1054" x1="111.044" y1="29.5891" x2="111.044" y2="54.9339" gradientUnits="userSpaceOnUse">
<stop offset="0.9999" stop-color="white"/>
<stop offset="1" stop-color="#574AA4"/>
</linearGradient>
<linearGradient id="paint33_linear_5_1054" x1="214.037" y1="97.1956" x2="214.037" y2="154.575" gradientUnits="userSpaceOnUse">
<stop stop-color="#7743B8"/>
<stop offset="1" stop-color="#574AA4"/>
</linearGradient>
<linearGradient id="paint34_linear_5_1054" x1="189.283" y1="97.1955" x2="189.283" y2="154.575" gradientUnits="userSpaceOnUse">
<stop stop-color="#7743B8"/>
<stop offset="1" stop-color="#574AA4"/>
</linearGradient>
<linearGradient id="paint35_linear_5_1054" x1="230.722" y1="97.1956" x2="230.722" y2="154.575" gradientUnits="userSpaceOnUse">
<stop stop-color="#7743B8"/>
<stop offset="1" stop-color="#574AA4"/>
</linearGradient>
<clipPath id="clip0_5_1054">
<rect width="333" height="223" fill="white"/>
</clipPath>
</defs>
</svg>
