<svg width="15" height="9" viewBox="0 0 15 9" fill="none" xmlns="http://www.w3.org/2000/svg">
<path d="M4 8.77068C2.88889 8.77068 1.94444 8.36198 1.16667 7.54457C0.388889 6.72716 0 5.73459 0 4.56686C0 3.39913 0.388889 2.40656 1.16667 1.58915C1.94444 0.771742 2.88889 0.363037 4 0.363037C4.9 0.363037 5.68622 0.628579 6.35867 1.15966C7.03067 1.69121 7.5 2.35985 7.76667 3.16558H14.6667V5.96813H13.3333V8.77068H10.6667V5.96813H7.76667C7.5 6.77386 7.03067 7.44251 6.35867 7.97406C5.68622 8.50514 4.9 8.77068 4 8.77068ZM4 5.96813C4.36667 5.96813 4.68044 5.83081 4.94133 5.55616C5.20267 5.28198 5.33333 4.95221 5.33333 4.56686C5.33333 4.18151 5.20267 3.85151 4.94133 3.57686C4.68044 3.30268 4.36667 3.16558 4 3.16558C3.63333 3.16558 3.31956 3.30268 3.05867 3.57686C2.79733 3.85151 2.66667 4.18151 2.66667 4.56686C2.66667 4.95221 2.79733 5.28198 3.05867 5.55616C3.31956 5.83081 3.63333 5.96813 4 5.96813Z" fill="#1E617A"/>
</svg>
