<svg width="14" height="14" viewBox="0 0 14 14" fill="none" xmlns="http://www.w3.org/2000/svg">
<path d="M2.33333 10.8889C2.33333 9.33333 5.44444 8.47778 7 8.47778C8.55556 8.47778 11.6667 9.33333 11.6667 10.8889V11.6667H2.33333M9.33333 4.66667C9.33333 5.28551 9.0875 5.879 8.64992 6.31658C8.21233 6.75417 7.61884 7 7 7C6.38116 7 5.78767 6.75417 5.35008 6.31658C4.9125 5.879 4.66667 5.28551 4.66667 4.66667C4.66667 4.04783 4.9125 3.45434 5.35008 3.01675C5.78767 2.57917 6.38116 2.33333 7 2.33333C7.61884 2.33333 8.21233 2.57917 8.64992 3.01675C9.0875 3.45434 9.33333 4.04783 9.33333 4.66667ZM0 1.55556V12.4444C0 12.857 0.163888 13.2527 0.455612 13.5444C0.747335 13.8361 1.143 14 1.55556 14H12.4444C12.857 14 13.2527 13.8361 13.5444 13.5444C13.8361 13.2527 14 12.857 14 12.4444V1.55556C14 1.143 13.8361 0.747335 13.5444 0.455612C13.2527 0.163888 12.857 0 12.4444 0H1.55556C1.143 0 0.747335 0.163888 0.455612 0.455612C0.163888 0.747335 0 1.143 0 1.55556Z" fill="#1E617A"/>
</svg>
