<svg width="16" height="16" viewBox="0 0 16 16" fill="none" xmlns="http://www.w3.org/2000/svg">
<path d="M7.99 3.415H8.02C8.15 3.415 8.255 3.31 8.255 3.18V2.165H8.76V2.365C8.76 2.53 8.895 2.665 9.06 2.665H10.1C10.18 2.665 10.245 2.6 10.245 2.52V1.81C10.245 1.77154 10.2297 1.73466 10.2025 1.70747C10.1753 1.68028 10.1385 1.665 10.1 1.665H9.75V1.365C9.75 1.255 9.66 1.165 9.55 1.165H8.2445C8.22957 1.11715 8.19973 1.07533 8.15934 1.04564C8.11895 1.01596 8.07013 0.999964 8.02 1H7.99C7.92767 1 7.8679 1.02476 7.82383 1.06883C7.77976 1.1129 7.755 1.17267 7.755 1.235V3.18C7.755 3.31 7.86 3.415 7.99 3.415ZM7.7515 7.482C7.75054 7.47303 7.75004 7.46402 7.75 7.455V6.75C7.75 6.61 7.86 6.5 8 6.5C8.14 6.5 8.25 6.61 8.25 6.75V7.4L8.92 8.07C9.02 8.17 9.02 8.325 8.92 8.425C8.865 8.475 8.805 8.5 8.74 8.5C8.70721 8.5004 8.6747 8.49393 8.64456 8.48102C8.61443 8.4681 8.58732 8.44902 8.565 8.425L7.825 7.685C7.7983 7.65885 7.77783 7.62702 7.7651 7.59188C7.75238 7.55674 7.74773 7.51918 7.7515 7.482Z" fill="#1E617A"/>
<path d="M11.995 7.97988L12 7.06988C12 6.91988 11.94 6.77988 11.835 6.67488L10.655 5.49488H13.62C13.85 5.49488 14.055 5.63488 14.14 5.84988L14.998 7.99988H15V14.9999H11.505V15.0049H9.5V14.9999H9.505V12.3499C9.505 12.1549 9.35 11.9999 9.155 11.9999H6.83C6.635 11.9999 6.48 12.1549 6.48 12.3499V14.9999H6.5V15.0049H4.505V14.9594L4.5 14.9999H1V7.99988H1.002L1.86 5.84988C1.945 5.63488 2.15 5.49488 2.38 5.49488H5.345L4.165 6.67488C4.06 6.77988 4 6.92488 4 7.06988V7.97988H4.005C4.005 7.98488 4.004 7.98838 4.0025 7.99238C4.00095 7.99637 4.0001 8.0006 4 8.00488V8.24988C4 8.31619 4.02634 8.37978 4.07322 8.42666C4.12011 8.47354 4.1837 8.49988 4.25 8.49988C4.3163 8.49988 4.37989 8.47354 4.42678 8.42666C4.47366 8.37978 4.5 8.31619 4.5 8.24988V8.00488C4.4999 8.0006 4.49905 7.99637 4.4975 7.99238C4.4965 7.98838 4.495 7.98488 4.495 7.97988H4.5V7.37488C4.5 7.34988 4.502 7.32538 4.505 7.30138C4.51199 7.17999 4.56364 7.06548 4.65 6.97988L7.725 3.94988C7.7617 3.913 7.80534 3.88373 7.85339 3.86375C7.90144 3.84378 7.95296 3.8335 8.005 3.8335C8.05704 3.8335 8.10856 3.84378 8.15661 3.86375C8.20466 3.88373 8.2483 3.913 8.285 3.94988L11.36 6.97988C11.45 7.06988 11.5 7.18988 11.505 7.31488V8.29988C11.5173 8.36064 11.5518 8.41465 11.6017 8.45142C11.6516 8.48819 11.7134 8.5051 11.7751 8.49887C11.8368 8.49264 11.894 8.46371 11.9355 8.4177C11.9771 8.37169 12.0001 8.31188 12 8.24988V8.00088C12 7.99238 11.9995 7.98438 11.995 7.97988ZM8 8.99988C8.39796 8.99988 8.77962 8.8418 9.06101 8.5604C9.34241 8.279 9.5005 7.89734 9.5005 7.49938C9.5005 7.10143 9.34241 6.71977 9.06101 6.43837C8.77962 6.15697 8.39796 5.99888 8 5.99888C7.60204 5.99888 7.22038 6.15697 6.93899 6.43837C6.65759 6.71977 6.4995 7.10143 6.4995 7.49938C6.4995 7.89734 6.65759 8.279 6.93899 8.5604C7.22038 8.8418 7.60204 8.99988 8 8.99988ZM4.505 8.03988V8.00488H4.5005L4.505 8.03988ZM1.64 10.4999H2.36C2.44 10.4999 2.5 10.4399 2.5 10.3599V9.13988C2.5 9.06488 2.435 8.99988 2.36 8.99988H1.64C1.565 8.99988 1.5 9.06488 1.5 9.13988V10.3599C1.5 10.4349 1.565 10.4999 1.64 10.4999ZM3.86 10.4999C3.94 10.4999 4 10.4399 4 10.3599V9.13988C4 9.06488 3.935 8.99988 3.86 8.99988H3.14C3.065 8.99988 3 9.06488 3 9.13988V10.3599C3 10.4349 3.065 10.4999 3.14 10.4999H3.86ZM2.36 12.4999C2.44 12.4999 2.5 12.4399 2.5 12.3599V11.1399C2.5 11.0649 2.435 10.9999 2.36 10.9999H1.64C1.565 10.9999 1.5 11.0649 1.5 11.1399V12.3599C1.5 12.4349 1.565 12.4999 1.64 12.4999H2.36ZM3.86 12.4999C3.94 12.4999 4 12.4399 4 12.3599V11.1399C4 11.0649 3.935 10.9999 3.86 10.9999H3.14C3.065 10.9999 3 11.0649 3 11.1399V12.3599C3 12.4349 3.065 12.4999 3.14 12.4999H3.86ZM12 10.3599C12 10.4349 12.065 10.4999 12.14 10.4999H12.86C12.94 10.4999 13 10.4399 13 10.3599V9.13988C13 9.06488 12.935 8.99988 12.86 8.99988H12.14C12.065 8.99988 12 9.06488 12 9.13988V10.3599ZM14.5 10.3599V9.13988C14.5 9.06488 14.435 8.99988 14.36 8.99988H13.64C13.565 8.99988 13.5 9.06488 13.5 9.13988V10.3599C13.5 10.4349 13.565 10.4999 13.64 10.4999H14.36C14.44 10.4999 14.5 10.4399 14.5 10.3599ZM13 12.3599V11.1399C13 11.0649 12.935 10.9999 12.86 10.9999H12.14C12.065 10.9999 12 11.0649 12 11.1399V12.3599C12 12.4349 12.065 12.4999 12.14 12.4999H12.86C12.94 12.4999 13 12.4399 13 12.3599ZM14.5 12.3599V11.1399C14.5 11.0649 14.435 10.9999 14.36 10.9999H13.64C13.565 10.9999 13.5 11.0649 13.5 11.1399V12.3599C13.5 12.4349 13.565 12.4999 13.64 12.4999H14.36C14.44 12.4999 14.5 12.4399 14.5 12.3599Z" fill="#1E617A"/>
</svg>
