<svg width="14" height="14" viewBox="0 0 14 14" fill="none" xmlns="http://www.w3.org/2000/svg">
<path d="M7 0C7.92826 0 8.8185 0.368749 9.47487 1.02513C10.1313 1.6815 10.5 2.57174 10.5 3.5C10.5 4.42826 10.1313 5.3185 9.47487 5.97487C8.8185 6.63125 7.92826 7 7 7C6.07174 7 5.1815 6.63125 4.52513 5.97487C3.86875 5.3185 3.5 4.42826 3.5 3.5C3.5 2.57174 3.86875 1.6815 4.52513 1.02513C5.1815 0.368749 6.07174 0 7 0ZM7 8.75C10.8675 8.75 14 10.3162 14 12.25V14H0L0 12.25C0 10.3162 3.1325 8.75 7 8.75Z" fill="#1E617A"/>
</svg>
